<?xml version="1.0" encoding="UTF-8"?>
<svg version="1.1" xmlns="http://www.w3.org/2000/svg" width="460" height="460">
<path d="M0 0 C1.51815699 0.00015911 3.0363194 0.00585313 4.55444336 0.01586914 C5.35208603 0.01728409 6.1497287 0.01869904 6.97154236 0.02015686 C9.52916146 0.02577223 12.08669429 0.03832727 14.64428711 0.05102539 C16.37410356 0.05603841 18.10392137 0.06060166 19.83374023 0.06469727 C24.08312264 0.07574664 28.33244023 0.09302153 32.58178711 0.11352539 C39.42760589 19.84203048 46.1190212 39.60936208 52.4831543 59.49902344 C55.34864858 68.43593364 58.36070669 77.29779864 61.58178711 86.11352539 C61.72688721 85.05593018 61.8719873 83.99833496 62.02148438 82.90869141 C64.86238582 62.282167 67.8750814 41.69884043 71.39428711 21.17602539 C71.62307053 19.83593918 71.62307053 19.83593918 71.85647583 18.46878052 C72.28870017 15.94478295 72.72509371 13.42155669 73.16381836 10.89868164 C73.29274475 10.15058228 73.42167114 9.40248291 73.55450439 8.63171387 C74.07085814 5.69977423 74.63864522 2.94295107 75.58178711 0.11352539 C87.79178711 0.11352539 100.00178711 0.11352539 112.58178711 0.11352539 C110.3321365 16.98590494 110.3321365 16.98590494 109.18066406 23.32592773 C109.05493861 24.02379489 108.92921316 24.72166204 108.79967785 25.44067669 C108.392956 27.69418845 107.9815182 29.94681008 107.57006836 32.19946289 C107.27752673 33.81629791 106.98533985 35.43319715 106.69348145 37.05015564 C106.07953947 40.44868778 105.46374057 43.84687525 104.84634399 47.24478149 C103.24964955 56.03412738 101.66580312 64.82579362 100.08178711 73.61743164 C99.92680063 74.47708967 99.77181416 75.3367477 99.61213112 76.22245598 C96.61104276 92.87363169 93.71715857 109.54121164 90.91381836 126.22680664 C90.47097556 128.85591863 90.02742149 131.4848874 89.58178711 134.11352539 C89.38718903 135.26180817 89.38718903 135.26180817 89.18865967 136.43328857 C88.78563875 138.80000926 88.37776029 141.16584421 87.96850586 143.53149414 C87.84457962 144.26161209 87.72065338 144.99173004 87.5929718 145.74397278 C86.69654134 150.88401692 86.69654134 150.88401692 85.58178711 153.11352539 C74.69178711 153.11352539 63.80178711 153.11352539 52.58178711 153.11352539 C50.63777089 147.92948214 48.735294 142.75539927 46.94506836 137.51977539 C46.70465317 136.81935623 46.46423798 136.11893707 46.21653748 135.39729309 C45.44110722 133.13649606 44.6675552 130.87506278 43.89428711 128.61352539 C43.62789429 127.83552582 43.36150146 127.05752625 43.08703613 126.25595093 C38.84706258 113.87157575 34.6663938 101.46861918 30.55249023 89.04174805 C28.73635644 83.56319956 26.9080588 78.08870085 25.08178711 72.61352539 C24.40465714 70.58229094 23.7275692 68.55104247 23.05053711 66.51977539 C22.62417969 65.24070313 22.62417969 65.24070313 22.18920898 63.93579102 C21.98875977 63.33444336 21.78831055 62.7330957 21.58178711 62.11352539 C21.43483398 63.20020508 21.28788086 64.28688477 21.13647461 65.40649414 C17.08809378 94.77525843 11.97467225 123.96626523 6.58178711 153.11352539 C-5.62821289 153.11352539 -17.83821289 153.11352539 -30.41821289 153.11352539 C-28.16362889 133.94956138 -28.16362889 133.94956138 -26.29321289 124.92602539 C-23.94504652 113.12218531 -21.8418146 101.28484862 -19.79321289 89.42602539 C-19.46162171 87.51081782 -19.12999675 85.59561611 -18.79833984 83.68041992 C-17.55609493 76.50144806 -16.31685992 69.32195671 -15.07811737 62.14237976 C-13.59066018 53.52129266 -12.10072838 44.90064428 -10.60428619 36.28111172 C-9.8568835 31.97500509 -9.1131526 27.66828507 -8.37208462 23.36108398 C-7.79822737 20.03191153 -7.21913834 16.70365302 -6.64086914 13.37524414 C-6.43080734 12.14832855 -6.22074554 10.92141296 -6.00431824 9.65731812 C-5.80969498 8.54289337 -5.61507172 7.42846863 -5.41455078 6.28027344 C-5.24548721 5.30205124 -5.07642365 4.32382904 -4.90223694 3.31596375 C-4.11815187 -0.25183218 -3.87043041 0.1285444 0 0 Z " fill="#FAFAFA" transform="translate(88.418212890625,151.886474609375)"/>
<path d="M0 0 C4.30165496 3.65051878 7.46143524 7.08136304 9 12.5625 C9 13.366875 9 14.17125 9 15 C9.66 15 10.32 15 11 15 C10.95875 13.865625 10.9175 12.73125 10.875 11.5625 C11 7 11 7 13 -2 C24.55 -2 36.1 -2 48 -2 C46.32181435 8.23747558 44.57500048 18.45775625 42.73828125 28.66796875 C42.33787731 30.90169032 41.93748684 33.13541431 41.53710938 35.36914062 C40.9211591 38.80368726 40.30336314 42.23785685 39.68041992 45.67114258 C39.06916233 49.04411477 38.46556897 52.41838493 37.86328125 55.79296875 C37.58210197 57.3274189 37.58210197 57.3274189 37.29524231 58.89286804 C36.1210919 65.52051902 35.34293893 71.37175574 37 78 C42.94 78.99 42.94 78.99 49 80 C48.31791417 86.88480384 47.25414036 93.63515176 46 100.4375 C45.73316406 101.92540039 45.73316406 101.92540039 45.4609375 103.44335938 C45.28820312 104.38888672 45.11546875 105.33441406 44.9375 106.30859375 C44.78152344 107.16251709 44.62554687 108.01644043 44.46484375 108.89624023 C44 111 44 111 43 113 C34.7827619 115.73907937 25.81459082 116.49592179 17.71484375 112.984375 C14.96517363 111.40597666 13.04555928 109.39622659 11 107 C10.4946875 106.42636719 9.989375 105.85273438 9.46875 105.26171875 C7.57410089 102.34416068 7.02553659 99.64541235 6.3125 96.25 C6.06113281 95.07953125 5.80976563 93.9090625 5.55078125 92.703125 C5.36902344 91.81109375 5.18726563 90.9190625 5 90 C4.74347656 90.60585938 4.48695313 91.21171875 4.22265625 91.8359375 C-0.40794085 101.97024091 -7.0188805 110.32505904 -17.3515625 115 C-22.01182602 116.27733133 -26.37076061 116.5708544 -31.1875 116.625 C-32.01870361 116.63611816 -32.84990723 116.64723633 -33.70629883 116.65869141 C-43.25176678 116.43716612 -50.15820647 112.6022217 -56.99609375 106.12109375 C-67.94600854 94.53083307 -69.41568311 78.32430919 -69.21484375 63.09375 C-68.52152779 40.32198115 -60.31328418 20.78609139 -43.87890625 4.95703125 C-32.16303423 -5.12506779 -13.6186991 -7.91784831 0 0 Z M-25 37 C-32.1227945 46.99255808 -33.68970973 57.74000827 -32.7890625 69.83203125 C-31.83535421 75.11341583 -29.87854588 78.30185161 -26 82 C-22.3155679 84.0783976 -19.18203352 84.65600526 -15 84 C-7.80441587 80.08905389 -3.95529544 74.48917315 -1.5859375 66.765625 C-1.17083449 65.26353593 -0.7674629 63.75816278 -0.375 62.25 C-0.05752808 61.06519043 -0.05752808 61.06519043 0.26635742 59.85644531 C3.74206824 48.056637 3.74206824 48.056637 4 36 C1.44149295 32.87293583 -1.1030276 30.22476275 -5 29 C-13.43188051 28.30886225 -19.40269303 30.37161017 -25 37 Z " fill="#FAFAFA" transform="translate(262,192)"/>
<path d="M0 0 C6.73999559 3.75121926 10.54494092 8.68169776 12.96484375 15.94140625 C13.60571082 23.62130509 13.85318858 30.64406791 8.96484375 36.94140625 C4.40478531 41.88523199 -0.80041691 45.48428296 -7.640625 46.22265625 C-16.11767733 46.50327591 -21.9913577 45.09957494 -28.34765625 39.37890625 C-33.03213618 34.33479105 -34.89275684 29.21338864 -35.12109375 22.36328125 C-34.71948707 15.47255613 -33.0002802 9.70814035 -27.875 4.92578125 C-19.73232331 -1.5883601 -10.08456204 -3.51726681 0 0 Z " fill="#F8F8F8" transform="translate(389.03515625,262.05859375)"/>
</svg>
